<?xml version="1.0" encoding="UTF-8" standalone="no"?>
<!-- Created with Inkscape (http://www.inkscape.org/) -->

<svg
   width="512"
   height="512"
   viewBox="0 0 135.46667 135.46667"
   version="1.1"
   id="svg5"
   inkscape:version="1.1 (c68e22c387, 2021-05-23)"
   sodipodi:docname="pulsar-logo-1.svg"
   inkscape:export-filename="/home/paul/Documents/cf-logo.png"
   inkscape:export-xdpi="96"
   inkscape:export-ydpi="96"
   xmlns:inkscape="http://www.inkscape.org/namespaces/inkscape"
   xmlns:sodipodi="http://sodipodi.sourceforge.net/DTD/sodipodi-0.dtd"
   xmlns:xlink="http://www.w3.org/1999/xlink"
   xmlns="http://www.w3.org/2000/svg"
   xmlns:svg="http://www.w3.org/2000/svg">
  <sodipodi:namedview
     id="namedview7"
     pagecolor="#040205"
     bordercolor="#eeeeee"
     borderopacity="1"
     inkscape:pageshadow="0"
     inkscape:pageopacity="1"
     inkscape:pagecheckerboard="0"
     inkscape:document-units="px"
     showgrid="false"
     inkscape:zoom="1.4142136"
     inkscape:cx="217.78888"
     inkscape:cy="48.436813"
     inkscape:window-width="1366"
     inkscape:window-height="699"
     inkscape:window-x="0"
     inkscape:window-y="0"
     inkscape:window-maximized="1"
     inkscape:current-layer="layer9"
     showguides="true"
     inkscape:lockguides="true" />
  <defs
     id="defs2">
    <linearGradient
       inkscape:collect="always"
       id="linearGradient236893">
      <stop
         style="stop-color:#a0fbeb;stop-opacity:1;"
         offset="0"
         id="stop236889" />
      <stop
         style="stop-color:#ddeefa;stop-opacity:0.94117647"
         offset="1"
         id="stop236891" />
    </linearGradient>
    <rect
       x="175.60678"
       y="120.91693"
       width="250.02684"
       height="205.91202"
       id="rect121214" />
    <rect
       x="170.69851"
       y="223.26019"
       width="15.712086"
       height="45.026896"
       id="rect39588" />
    <linearGradient
       inkscape:collect="always"
       id="linearGradient8970">
      <stop
         style="stop-color:#003000;stop-opacity:1"
         offset="0"
         id="stop8966" />
      <stop
         style="stop-color:#070e0a;stop-opacity:0.50196081"
         offset="1"
         id="stop8968" />
    </linearGradient>
    <linearGradient
       inkscape:collect="always"
       id="linearGradient1119">
      <stop
         style="stop-color:#003000;stop-opacity:1"
         offset="0"
         id="stop1115" />
      <stop
         style="stop-color:#070e0a;stop-opacity:0.50196081"
         offset="1"
         id="stop1117" />
    </linearGradient>
    <linearGradient
       inkscape:collect="always"
       id="linearGradient238255">
      <stop
         style="stop-color:#121212;stop-opacity:1"
         offset="0"
         id="stop238251" />
      <stop
         style="stop-color:#102d25;stop-opacity:0.50196081"
         offset="1"
         id="stop238253" />
    </linearGradient>
    <linearGradient
       inkscape:collect="always"
       id="linearGradient152200">
      <stop
         style="stop-color:#121212;stop-opacity:1"
         offset="0"
         id="stop152196" />
      <stop
         style="stop-color:#102d25;stop-opacity:0.50196081"
         offset="1"
         id="stop152198" />
    </linearGradient>
    <linearGradient
       inkscape:collect="always"
       id="linearGradient95774">
      <stop
         style="stop-color:#6febc3;stop-opacity:1"
         offset="0"
         id="stop95770" />
      <stop
         style="stop-color:#44947f;stop-opacity:1"
         offset="1"
         id="stop95772" />
    </linearGradient>
    <linearGradient
       inkscape:collect="always"
       id="linearGradient41672">
      <stop
         style="stop-color:#6febc3;stop-opacity:1"
         offset="0"
         id="stop41668" />
      <stop
         style="stop-color:#44947f;stop-opacity:1"
         offset="1"
         id="stop41670" />
    </linearGradient>
    <linearGradient
       inkscape:collect="always"
       id="linearGradient41253">
      <stop
         style="stop-color:#94f1e3;stop-opacity:1"
         offset="0"
         id="stop41249" />
      <stop
         style="stop-color:#5cad98;stop-opacity:0"
         offset="1"
         id="stop41251" />
    </linearGradient>
    <linearGradient
       inkscape:collect="always"
       id="linearGradient73029">
      <stop
         style="stop-color:#83baa3;stop-opacity:1;"
         offset="0"
         id="stop73025" />
      <stop
         style="stop-color:#83baa3;stop-opacity:0;"
         offset="1"
         id="stop73027" />
    </linearGradient>
    <inkscape:path-effect
       effect="bspline"
       id="path-effect277"
       is_visible="true"
       lpeversion="1"
       weight="33.333333"
       steps="2"
       helper_size="0"
       apply_no_weight="true"
       apply_with_weight="true"
       only_selected="false" />
    <inkscape:path-effect
       effect="bspline"
       id="path-effect221"
       is_visible="true"
       lpeversion="1"
       weight="33.333333"
       steps="2"
       helper_size="0"
       apply_no_weight="true"
       apply_with_weight="true"
       only_selected="false" />
    <inkscape:path-effect
       effect="bspline"
       id="path-effect861"
       is_visible="true"
       lpeversion="1"
       weight="33.333333"
       steps="2"
       helper_size="0"
       apply_no_weight="true"
       apply_with_weight="true"
       only_selected="false" />
    <inkscape:path-effect
       effect="bspline"
       id="path-effect493"
       is_visible="true"
       lpeversion="1"
       weight="33.333333"
       steps="2"
       helper_size="0"
       apply_no_weight="true"
       apply_with_weight="true"
       only_selected="false" />
    <inkscape:path-effect
       effect="bspline"
       id="path-effect356"
       is_visible="true"
       lpeversion="1"
       weight="33.333333"
       steps="2"
       helper_size="0"
       apply_no_weight="true"
       apply_with_weight="true"
       only_selected="false" />
    <inkscape:path-effect
       effect="spiro"
       id="path-effect922"
       is_visible="true"
       lpeversion="1" />
    <inkscape:path-effect
       effect="spiro"
       id="path-effect918"
       is_visible="true"
       lpeversion="1" />
    <inkscape:path-effect
       effect="spiro"
       id="path-effect910"
       is_visible="true"
       lpeversion="1" />
    <inkscape:path-effect
       effect="spiro"
       id="path-effect906"
       is_visible="true"
       lpeversion="1" />
    <inkscape:path-effect
       effect="spiro"
       id="path-effect902"
       is_visible="true"
       lpeversion="1" />
    <inkscape:path-effect
       effect="spiro"
       id="path-effect898"
       is_visible="true"
       lpeversion="1" />
    <inkscape:path-effect
       effect="spiro"
       id="path-effect890"
       is_visible="true"
       lpeversion="1" />
    <inkscape:path-effect
       effect="spiro"
       id="path-effect882"
       is_visible="true"
       lpeversion="1" />
    <inkscape:path-effect
       effect="spiro"
       id="path-effect874"
       is_visible="true"
       lpeversion="1" />
    <inkscape:path-effect
       effect="spiro"
       id="path-effect870"
       is_visible="true"
       lpeversion="1" />
    <inkscape:path-effect
       effect="spiro"
       id="path-effect866"
       is_visible="true"
       lpeversion="1" />
    <inkscape:path-effect
       effect="spiro"
       id="path-effect5005"
       is_visible="true"
       lpeversion="1" />
    <linearGradient
       inkscape:collect="always"
       xlink:href="#linearGradient73029"
       id="linearGradient73031"
       x1="81.107506"
       y1="34.753944"
       x2="71.290146"
       y2="32.344013"
       gradientUnits="userSpaceOnUse" />
    <linearGradient
       inkscape:collect="always"
       xlink:href="#linearGradient73029"
       id="linearGradient146571"
       x1="74.668098"
       y1="22.80595"
       x2="81.303383"
       y2="24.950706"
       gradientUnits="userSpaceOnUse" />
    <linearGradient
       inkscape:collect="always"
       xlink:href="#linearGradient73029"
       id="linearGradient155137"
       x1="49.684284"
       y1="97.108475"
       x2="62.709251"
       y2="100.65446"
       gradientUnits="userSpaceOnUse" />
    <linearGradient
       inkscape:collect="always"
       xlink:href="#linearGradient73029"
       id="linearGradient155259"
       x1="64.303444"
       y1="107.80391"
       x2="48.841064"
       y2="103.24539"
       gradientUnits="userSpaceOnUse" />
    <radialGradient
       inkscape:collect="always"
       xlink:href="#linearGradient41253"
       id="radialGradient41255"
       cx="67.410576"
       cy="63.336891"
       fx="67.410576"
       fy="63.336891"
       r="4.6363595"
       gradientTransform="matrix(2.4956982,-0.00460971,0.00389589,2.1093905,-101.07264,-69.954593)"
       gradientUnits="userSpaceOnUse" />
    <radialGradient
       inkscape:collect="always"
       xlink:href="#linearGradient41672"
       id="radialGradient41674"
       cx="67.245308"
       cy="62.36005"
       fx="67.245308"
       fy="62.36005"
       r="9.9214991"
       gradientTransform="matrix(0.78621096,0.00688282,-0.00681263,0.77819214,14.801146,13.369111)"
       gradientUnits="userSpaceOnUse" />
    <radialGradient
       inkscape:collect="always"
       xlink:href="#linearGradient95774"
       id="radialGradient95797"
       gradientUnits="userSpaceOnUse"
       gradientTransform="matrix(0.78621096,0.00688282,-0.00681263,0.77819214,14.801146,13.369111)"
       cx="67.245308"
       cy="62.36005"
       fx="67.245308"
       fy="62.36005"
       r="9.9214991" />
    <radialGradient
       inkscape:collect="always"
       xlink:href="#linearGradient152200"
       id="radialGradient152202"
       cx="64.827065"
       cy="63.775875"
       fx="64.827065"
       fy="63.775875"
       r="16.978395"
       gradientTransform="matrix(0.99999985,7.5764345e-8,-7.0567438e-8,0.89670055,4.3847373e-5,6.5880152)"
       gradientUnits="userSpaceOnUse" />
    <radialGradient
       inkscape:collect="always"
       xlink:href="#linearGradient238255"
       id="radialGradient240539"
       gradientUnits="userSpaceOnUse"
       gradientTransform="matrix(0.99999977,0,0,0.89670055,1.5530474e-5,6.5880131)"
       cx="64.827095"
       cy="63.775883"
       fx="64.827095"
       fy="63.775883"
       r="16.978395" />
    <radialGradient
       inkscape:collect="always"
       xlink:href="#linearGradient1119"
       id="radialGradient1163"
       gradientUnits="userSpaceOnUse"
       gradientTransform="matrix(0.99999988,1.3802683e-7,-1.608943e-7,1.0471164,1.8713963e-5,-2.9180555)"
       cx="66.299774"
       cy="61.932579"
       fx="66.299774"
       fy="61.932579"
       r="35.541646" />
    <radialGradient
       inkscape:collect="always"
       xlink:href="#linearGradient8970"
       id="radialGradient8972"
       cx="66.299774"
       cy="61.932571"
       fx="66.299774"
       fy="61.932571"
       r="35.541645"
       gradientTransform="matrix(0.99999989,0,0,0.94596571,7.1159781e-6,3.3464826)"
       gradientUnits="userSpaceOnUse" />
    <linearGradient
       inkscape:collect="always"
       xlink:href="#linearGradient236893"
       id="linearGradient236895"
       x1="10.964659"
       y1="6.0972948"
       x2="34.211311"
       y2="19.47994"
       gradientUnits="userSpaceOnUse"
       gradientTransform="translate(1.5875001)" />
    <linearGradient
       inkscape:collect="always"
       xlink:href="#linearGradient236893"
       id="linearGradient300384"
       x1="28.657404"
       y1="-21.212929"
       x2="28.35437"
       y2="-41.521282"
       gradientUnits="userSpaceOnUse"
       gradientTransform="translate(1.5500658,-0.34271355)" />
    <linearGradient
       inkscape:collect="always"
       xlink:href="#linearGradient236893"
       id="linearGradient13794"
       gradientUnits="userSpaceOnUse"
       gradientTransform="translate(0.28821289,-1.147615)"
       x1="28.657404"
       y1="-21.212929"
       x2="28.35437"
       y2="-41.521282" />
  </defs>
  <g
     inkscape:groupmode="layer"
     id="layer9"
     inkscape:label="canvas"
     style="display:inline"
     sodipodi:insensitive="true">
    <rect
       style="fill:#040205;fill-opacity:1;stroke:#070e0a;stroke-width:0.0264583;stroke-opacity:0.501961"
       id="rect223"
       width="135.46667"
       height="135.46667"
       x="0.13446999"
       y="0.035809942" />
  </g>
  <g
     inkscape:groupmode="layer"
     id="layer6"
     inkscape:label="circle 4"
     style="display:inline"
     sodipodi:insensitive="true">
    <path
       style="fill:url(#radialGradient1163);fill-opacity:1;stroke:url(#radialGradient8972);stroke-width:0.0264583;stroke-linecap:butt;stroke-linejoin:miter;stroke-miterlimit:4;stroke-dasharray:none;stroke-opacity:1"
       d="m 32.476095,58.973827 c 0.238134,-1.645844 0.714435,-4.937753 1.484625,-7.905879 0.77019,-2.968127 1.834251,-5.61228 3.206416,-8.096667 1.372165,-2.484386 3.052325,-4.808772 4.967784,-6.689572 1.915458,-1.8808 4.065998,-3.317823 6.01455,-4.444795 1.948553,-1.126972 3.694949,-1.943819 6.135738,-2.586726 2.440788,-0.642907 5.575701,-1.11186 8.941778,-0.853056 3.366076,0.258804 6.963597,1.245376 9.423494,2.074582 2.459898,0.829206 3.783471,1.501376 5.079987,2.159773 1.296515,0.658397 2.56598,1.303024 3.963833,2.164504 1.397853,0.861479 2.923264,1.939212 4.684907,2.990439 1.761643,1.051227 3.759127,2.07575 5.756856,3.472609 1.997729,1.396859 3.99562,3.165879 5.521687,5.067565 1.526068,1.901687 2.58035,3.935857 3.09845,5.749024 0.51809,1.813166 0.50016,3.405283 0.64111,5.517286 0.14096,2.112002 0.44075,4.743726 0.43063,7.099324 -0.0101,2.355598 -0.3301,4.435011 -0.93869,6.703691 -0.60859,2.26868 -1.505733,4.726556 -2.515206,7.144441 -1.009474,2.417884 -2.131211,4.795666 -3.739442,6.8606 -1.608232,2.064934 -3.702929,3.817037 -6.621342,5.453818 -2.918413,1.636782 -6.660461,3.15818 -10.18784,3.94837 -3.52738,0.790189 -6.840011,0.849088 -9.688535,0.621362 -2.848524,-0.227725 -5.232828,-0.742127 -7.132534,-1.208226 -1.899705,-0.4661 -3.314718,-0.883899 -5.356309,-1.173855 -2.04159,-0.289957 -4.709588,-0.451981 -6.689609,-1.216454 -1.980021,-0.764473 -3.271934,-2.131589 -4.58192,-3.474295 -1.309986,-1.342705 -2.637973,-2.660911 -4.286578,-3.999767 -1.648604,-1.338856 -3.61776,-2.698229 -5.234137,-4.503532 -1.616376,-1.805303 -2.879757,-4.05652 -3.522552,-6.387725 -0.642796,-2.331206 -0.664806,-4.742208 -0.410575,-6.895709 0.254231,-2.153501 0.784732,-4.049285 1.050013,-4.997286 0.265281,-0.948 0.265277,-0.948 0.503411,-2.593844 z"
       id="path859"
       inkscape:original-d="m 32.237961,60.619671 c 0.476565,-3.291645 0.952865,-6.583554 1.428901,-9.875727 1.064366,-2.643995 2.128428,-5.288148 3.192246,-7.932619 1.680493,-2.324213 3.360653,-4.648599 5.040582,-6.973295 2.150891,-1.436817 4.301432,-2.873838 6.451751,-4.311155 1.746732,-0.816613 3.493127,-1.633461 5.239295,-2.450589 3.135305,-0.468707 6.270218,-0.93766 9.40493,-1.406888 3.597347,0.986716 7.194868,1.973289 10.791029,2.959296 1.32363,0.672329 2.647242,1.344423 3.970741,2.016521 1.269534,0.644693 2.538958,1.2894 3.808411,1.933891 1.526269,1.078416 3.051681,2.156148 4.577123,3.233825 1.997829,1.024826 3.995311,2.049351 5.992572,3.07363 1.998236,1.769353 3.996126,3.538373 5.993791,5.307163 1.054587,2.034514 2.108867,4.068684 3.162897,6.102626 -0.0177,1.592447 -0.0356,3.184564 -0.0538,4.776449 0.30007,2.632091 0.59987,5.263814 0.8994,7.895323 -0.31972,2.07976 -0.63969,4.159173 -0.95993,6.238362 -0.89692,2.458241 -1.794066,4.916117 -2.691493,7.373778 -1.121519,2.378142 -2.243257,4.755923 -3.36528,7.13349 -2.094519,1.752436 -4.189215,3.504541 -6.28422,5.256414 -3.741931,1.521722 -7.483978,3.043121 -11.226364,4.564285 -3.312498,0.05917 -6.625129,0.118065 -9.938091,0.176699 -2.384134,-0.514157 -4.768438,-1.028557 -7.153056,-1.543235 -1.414801,-0.41755 -2.829814,-0.835348 -4.245118,-1.253419 -2.667841,-0.161766 -5.335839,-0.323792 -8.004156,-0.486082 -1.291702,-1.366909 -2.583614,-2.734027 -3.875821,-4.101436 -1.327774,-1.317993 -2.655763,-2.636197 -3.98404,-3.954693 -1.968969,-1.359162 -3.938125,-2.718535 -5.907583,-4.0782 -1.263168,-2.251046 -2.526548,-4.502264 -3.79022,-6.753794 -0.02175,-2.410833 -0.04376,-4.821835 -0.06603,-7.23315 0.530788,-1.895597 1.061291,-3.791381 1.591537,-5.68747 z"
       inkscape:path-effect="#path-effect861"
       sodipodi:nodetypes="scccccccccccccccccccccccccccccss" />
    <circle
       id="path9436"
       style="fill:#003000;stroke:#070e0a;stroke-width:0.264583"
       cx="16.328428"
       cy="47.692444"
       r="0.0028277414" />
    <circle
       id="path9438"
       style="fill:#003000;stroke:#070e0a;stroke-width:0.264583"
       cx="16.328428"
       cy="47.692444"
       r="0.0028277414" />
    <circle
       id="path9440"
       style="fill:#003000;stroke:#070e0a;stroke-width:0.264583"
       cx="16.328428"
       cy="47.692444"
       r="0.0028277414" />
    <circle
       id="path9442"
       style="fill:#003000;stroke:#070e0a;stroke-width:0.264583"
       cx="16.328428"
       cy="47.692444"
       r="0.0028277414" />
    <circle
       id="path9444"
       style="fill:#003000;stroke:#070e0a;stroke-width:0.264583"
       cx="16.328428"
       cy="47.692444"
       r="0.0028277414" />
    <circle
       id="path9446"
       style="fill:#003000;stroke:#070e0a;stroke-width:0.264583"
       cx="16.328428"
       cy="47.692444"
       r="0.0028277414" />
    <circle
       id="path9448"
       style="fill:#003000;stroke:#070e0a;stroke-width:0.264583"
       cx="15.257833"
       cy="61.358067"
       r="0.0028277414" />
    <circle
       id="path9450"
       style="fill:#003000;stroke:#070e0a;stroke-width:0.264583"
       cx="15.257833"
       cy="61.358067"
       r="0.0028277414" />
    <circle
       id="path9452"
       style="fill:#003000;stroke:#070e0a;stroke-width:0.264583"
       cx="15.257833"
       cy="61.358067"
       r="0.0028277414" />
    <circle
       id="path9454"
       style="fill:#003000;stroke:#070e0a;stroke-width:0.264583"
       cx="15.257833"
       cy="61.358067"
       r="0.0028277414" />
    <circle
       id="path9456"
       style="fill:#003000;stroke:#070e0a;stroke-width:0.264583"
       cx="15.257833"
       cy="61.358067"
       r="0.0028277414" />
    <circle
       id="path9458"
       style="fill:#003000;stroke:#070e0a;stroke-width:0.264583"
       cx="15.257833"
       cy="61.358067"
       r="0.0028277414" />
  </g>
  <g
     inkscape:groupmode="layer"
     id="layer5"
     inkscape:label="circle 3"
     style="display:inline;mix-blend-mode:normal"
     sodipodi:insensitive="true">
    <path
       style="fill:url(#radialGradient240539);fill-opacity:1;stroke:url(#radialGradient152202);stroke-width:0.0264583;stroke-linecap:butt;stroke-linejoin:miter;stroke-miterlimit:4;stroke-dasharray:none;stroke-opacity:1"
       d="m 50.41778,57.856866 c 0.881669,-0.874604 1.53051,-1.515649 2.091791,-1.925969 0.561281,-0.41032 1.03484,-0.589854 1.47943,-0.668443 0.44459,-0.07859 0.860049,-0.0563 1.067644,-0.351917 0.207594,-0.295618 0.207594,-0.909369 0.324567,-1.39717 0.116974,-0.487801 0.350952,-0.849424 0.721975,-1.354804 0.371023,-0.505381 0.87905,-1.154452 1.415709,-1.538901 0.536659,-0.384449 1.10169,-0.504178 1.532166,-0.395915 0.430477,0.108264 0.726329,0.444188 1.095326,0.892372 0.368997,0.448184 0.811132,1.008587 1.27324,1.236433 0.462108,0.227846 0.944191,0.123463 1.306209,-0.05995 0.362018,-0.183411 0.604156,-0.445889 0.912842,-0.703712 0.308686,-0.257823 0.683831,-0.510924 1.106133,-0.534583 0.422302,-0.02366 0.891476,0.181939 1.263156,0.01663 0.37168,-0.16531 0.646216,-0.701474 1.01982,-1.192824 0.373603,-0.49135 0.846189,-0.937747 1.246694,-1.148998 0.400504,-0.211252 0.728636,-0.187379 1.047596,-0.104794 0.31896,0.08258 0.628699,0.223751 0.979396,0.521753 0.350697,0.298002 0.742405,0.752681 1.221917,1.033324 0.479511,0.280644 1.046733,0.387463 1.478013,0.803434 0.43128,0.415972 0.726767,1.140804 1.268244,1.472729 0.541476,0.331925 1.328791,0.271269 1.600629,0.717909 0.271837,0.446639 0.02848,1.400335 0.33476,2.121894 0.306279,0.721559 1.161803,1.210952 2.086417,1.721488 0.924614,0.510536 1.918259,1.042194 2.575866,2.162496 0.657607,1.120302 0.979402,2.829034 0.917347,4.459495 -0.06206,1.63046 -0.507843,3.18268 -1.038274,4.096514 -0.530431,0.913834 -1.145643,1.189467 -1.365709,1.780885 -0.220066,0.591418 -0.04492,1.498219 -0.03565,2.465299 0.0093,0.96708 -0.147243,1.994465 -0.605182,2.444378 -0.457939,0.449914 -1.217608,0.322511 -1.857193,0.194935 -0.639584,-0.127576 -1.159062,-0.255344 -1.849342,-0.342038 -0.69028,-0.08669 -1.551284,-0.132247 -2.435976,0.09093 -0.884692,0.223175 -1.792834,0.715126 -2.454361,1.459197 -0.661527,0.744071 -1.076257,1.740029 -1.854417,2.197646 -0.778161,0.457616 -1.920037,0.376984 -2.887449,0.253314 -0.967413,-0.12367 -1.760333,-0.290415 -2.340031,-0.353674 -0.579698,-0.06326 -0.946072,-0.02294 -1.468588,0.111088 -0.522517,0.134032 -1.201065,0.361798 -1.840531,0.570205 -0.639467,0.208407 -1.239818,0.39744 -1.713867,0.37832 -0.474049,-0.01912 -0.821911,-0.246643 -1.252678,-0.561066 -0.430767,-0.314424 -0.944397,-0.715754 -1.31121,-1.659096 -0.366813,-0.943342 -0.58654,-2.428694 -0.971614,-3.23581 -0.385073,-0.807116 -0.935731,-0.935737 -1.338179,-1.816394 -0.402447,-0.880658 -0.6564,-2.51351 -0.880005,-3.64146 -0.223606,-1.127949 -0.416903,-1.750955 -0.845485,-2.166596 -0.428582,-0.41564 -1.092635,-0.623675 -1.65149,-0.934017 -0.558854,-0.310342 -1.012437,-0.723121 -1.40832,-1.410733 -0.395883,-0.687613 -0.733879,-1.650077 -0.345678,-2.68557 0.388201,-1.035492 1.502671,-2.143628 2.38434,-3.018232 z"
       id="path491"
       inkscape:path-effect="#path-effect493"
       inkscape:original-d="m 50.650604,57.623312 c 0.649108,-0.640784 1.297948,-1.28183 1.946527,-1.92314 0.473842,-0.179276 0.947401,-0.358809 1.420704,-0.538612 0.415742,0.02257 0.831202,0.04484 1.246404,0.06687 2.65e-4,-0.613511 2.65e-4,-1.227262 0,-1.841289 0.234254,-0.361376 0.468231,-0.723 0.70195,-1.084895 0.508313,-0.648835 1.016339,-1.297908 1.524114,-1.947256 0.565317,-0.11947 1.130348,-0.2392 1.695125,-0.359196 0.296129,0.336201 0.591981,0.672126 0.887576,1.007793 0.442416,0.560689 0.88455,1.121092 1.326428,1.681241 0.48237,-0.104124 0.964454,-0.208504 1.446284,-0.313155 0.242414,-0.262226 0.484553,-0.524703 0.72643,-0.787453 0.375425,-0.252846 0.75057,-0.505947 1.125455,-0.759317 0.469458,0.205872 0.938633,0.411469 1.407552,0.616807 0.274812,-0.535921 0.549349,-1.072084 0.823626,-1.608524 0.472869,-0.446151 0.945455,-0.892548 1.417783,-1.339217 0.328407,0.02413 0.656538,0.04801 0.984407,0.07162 0.310015,0.141435 0.619754,0.282601 0.929232,0.423505 0.391991,0.454964 0.783699,0.909643 1.175152,1.364067 0.56751,0.107088 1.134732,0.213908 1.701703,0.320464 0.295761,0.725125 0.591251,1.449956 0.886478,2.174539 0.787612,-0.06039 1.574927,-0.12105 2.361994,-0.181973 -0.243102,0.953998 -0.486458,1.907694 -0.730084,2.861141 0.855822,0.489678 1.711347,0.979069 2.566623,1.468207 0.99395,0.531945 1.987595,1.063602 2.980994,1.595007 0.322075,1.709065 0.643869,3.417797 0.965407,5.126302 -0.44554,1.552546 -0.891329,3.104766 -1.337392,4.656754 -0.614971,0.275907 -1.230183,0.551542 -1.845673,0.826915 0.175421,0.907103 0.350568,1.813904 0.525457,2.72046 -0.156255,1.027689 -0.312769,2.055074 -0.469551,3.082213 -0.75943,-0.127143 -1.519099,-0.254545 -2.279046,-0.382215 -0.519232,-0.12751 -1.03871,-0.255277 -1.558462,-0.383312 -0.860775,-0.04529 -1.721779,-0.09085 -2.583067,-0.136663 -0.907912,0.492234 -1.816055,0.984184 -2.724478,1.475881 -0.414483,0.996264 -0.829212,1.992222 -1.244214,2.987937 -1.141655,-0.08037 -2.283531,-0.161002 -3.425695,-0.241901 -0.792686,-0.166486 -1.585606,-0.333229 -2.378803,-0.500242 -0.366125,0.04058 -0.732499,0.0809 -1.099148,0.120951 -0.678309,0.228039 -1.356857,0.455806 -2.035685,0.683311 -0.600112,0.189306 -1.200463,0.378341 -1.801093,0.567113 -0.34761,-0.227267 -0.695471,-0.45479 -1.043604,-0.68258 -0.513387,-0.401085 -1.027017,-0.802415 -1.540923,-1.204018 -0.219472,-1.485149 -0.4392,-2.970501 -0.659196,-4.456147 -0.550416,-0.12836 -1.101074,-0.256982 -1.652008,-0.385869 -0.253699,-1.632654 -0.507651,-3.265506 -0.761873,-4.898655 -0.19304,-0.622768 -0.386337,-1.245774 -0.579903,-1.869059 -0.663816,-0.20778 -1.32787,-0.415813 -1.992202,-0.624117 -0.453337,-0.412533 -0.90692,-0.825312 -1.360778,-1.238367 -0.337744,-0.962236 -0.675738,-1.924701 -1.014006,-2.887451 1.11478,-1.107916 2.22925,-2.216052 3.343479,-3.324475 z" />
  </g>
  <g
     inkscape:groupmode="layer"
     id="layer4"
     inkscape:label="circle 2"
     style="display:inline"
     sodipodi:insensitive="true">
    <path
       style="fill:url(#radialGradient41674);fill-opacity:1;stroke:url(#radialGradient95797);stroke-width:0.0264583;stroke-linecap:butt;stroke-linejoin:miter;stroke-miterlimit:4;stroke-dasharray:none;stroke-opacity:1"
       d="m 57.669833,60.97874 c 0.384525,-0.278367 1.153526,-0.835066 1.589633,-1.572242 0.436108,-0.737176 0.539395,-1.655063 0.960975,-2.359192 0.42158,-0.70413 1.161331,-1.194192 1.814294,-1.504 0.652964,-0.309807 1.218969,-0.439341 1.684455,-0.725332 0.465487,-0.285991 0.830644,-0.728491 1.183454,-0.999755 0.35281,-0.271264 0.693059,-0.371201 0.925992,-0.280209 0.232934,0.09099 0.35857,0.372533 0.439358,0.713597 0.08079,0.341065 0.116842,0.741664 0.259896,1.004117 0.143054,0.262453 0.392804,0.386871 0.63364,0.509013 0.240837,0.122141 0.472744,0.241992 1.064268,0.329159 0.591524,0.08717 1.54266,0.141795 2.246352,0.137508 0.703691,-0.0043 1.159954,-0.06744 1.641096,0.01648 0.481142,0.08392 0.98704,0.314732 1.275273,0.645233 0.288233,0.330501 0.35906,0.760517 0.3886,1.26038 0.02954,0.499862 0.01785,1.069582 0.0654,1.540471 0.04755,0.47089 0.154248,0.842867 0.51759,1.034949 0.363341,0.192081 0.983123,0.204568 1.586437,0.282529 0.603314,0.07796 1.190086,0.22132 1.206661,0.628762 0.01657,0.407442 -0.536702,1.078986 -1.113783,1.469057 -0.577082,0.390072 -1.178165,0.498718 -1.614076,0.609033 -0.435912,0.110316 -0.706552,0.222311 -0.85931,0.451875 -0.152758,0.229563 -0.187471,0.57639 -0.229372,1.005474 -0.0419,0.429085 -0.09099,0.940404 -0.06111,1.368856 0.02987,0.428453 0.138581,0.773938 0.181304,1.079566 0.04272,0.305629 0.01958,0.571458 -0.461376,0.881758 -0.480956,0.3103 -1.419854,0.665348 -2.133431,0.973117 -0.713578,0.307768 -1.201753,0.568238 -1.796874,0.72675 -0.595122,0.158512 -1.2973,0.215027 -1.837642,0.247526 -0.540341,0.0325 -0.918836,0.04097 -1.363196,0.02877 -0.444359,-0.0122 -0.954582,-0.04508 -1.526222,-0.145297 -0.57164,-0.100213 -1.204695,-0.26781 -1.691448,-0.412041 -0.486754,-0.14423 -0.827186,-0.265117 -1.225895,-0.06683 -0.398709,0.198283 -0.855338,0.715812 -1.379226,1.027904 -0.523888,0.312093 -1.115226,0.418789 -1.525179,0.248195 -0.409953,-0.170594 -0.638451,-0.61882 -0.635177,-1.091427 0.0033,-0.472608 0.238533,-0.969371 0.506577,-1.403003 0.268044,-0.433632 0.56883,-0.804028 0.909319,-1.330525 0.340489,-0.526497 0.72069,-1.209128 0.838291,-1.843553 0.117602,-0.634425 -0.02752,-1.220832 -0.22858,-1.687712 -0.201058,-0.46688 -0.458179,-0.814193 -0.775528,-1.117527 -0.317349,-0.303335 -0.694991,-0.562587 -1.012657,-0.789042 -0.317667,-0.226456 -0.575337,-0.420119 -0.704321,-0.517063 -0.128984,-0.09694 -0.128982,-0.09696 0.255542,-0.375323 z"
       id="path354" />
  </g>
  <g
     inkscape:label="circle 1"
     inkscape:groupmode="layer"
     id="layer1"
     style="display:inline"
     sodipodi:insensitive="true">
    <path
       id="path920"
       style="display:inline;opacity:1;fill:url(#radialGradient41255);fill-opacity:1;stroke:#000000;stroke-width:0.0264583;stroke-linecap:butt;stroke-linejoin:round;stroke-miterlimit:4;stroke-dasharray:none;stroke-opacity:1"
       d="m 63.073149,61.170373 c 0.0079,-0.205182 0.06993,-0.408033 0.17807,-0.582587 0.108136,-0.174554 0.262154,-0.320402 0.442337,-0.418874 0.180182,-0.09847 0.386109,-0.149337 0.591418,-0.146085 0.051,8.08e-4 0.10279,0.0048 0.152387,-0.0071 0.0248,-0.006 0.04885,-0.01597 0.06921,-0.03132 0.02036,-0.01535 0.03691,-0.03625 0.04505,-0.06042 0.0019,-0.0056 0.0033,-0.01143 0.0036,-0.0041 0.03329,-0.259979 0.153398,-0.521828 0.338273,-0.725837 0.184876,-0.204009 0.43367,-0.349239 0.702217,-0.409909 0.133925,-0.03026 0.272486,-0.0399 0.409311,-0.02849 v 0 l 2.529563,0.327802 c 0.87683,-0.405248 1.921235,-0.431461 2.817291,-0.07071 0.1115,0.04489 0.221811,0.09609 0.31681,0.169733 0.207568,0.160895 0.324806,0.419079 0.355589,0.679894 0.03078,0.260814 -0.01743,0.525203 -0.09249,0.77687 -0.07507,0.251668 -0.176847,0.494581 -0.257137,0.744632 -0.08029,0.25005 -0.139347,0.511162 -0.1249,0.773389 0.0039,0.07128 0.01328,0.142257 0.02795,0.212119 0.239567,0.227802 0.39756,0.539685 0.439506,0.867598 0.04195,0.327912 -0.03245,0.669523 -0.206963,0.950293 -0.02882,0.04637 -0.06057,0.09148 -0.100399,0.128825 -0.03983,0.03735 -0.08839,0.06679 -0.141962,0.07737 -0.03819,0.0075 -0.07829,0.0052 -0.115369,-0.0066 -0.175467,0.06015 -0.334576,0.167299 -0.456275,0.307283 -0.121699,0.139985 -0.205684,0.31245 -0.240842,0.494577 -0.03516,0.182126 -0.0214,0.37346 0.03945,0.548684 0.06085,0.175224 0.168641,0.333902 0.309113,0.455038 0.0906,0.07813 0.194523,0.140754 0.305923,0.184357 -0.454618,-0.187089 -0.970492,-0.221623 -1.445989,-0.0968 -0.475496,0.124825 -0.907889,0.408295 -1.21199,0.79456 -0.0029,0.0037 -0.0059,0.0075 -0.0088,0.01125 -0.457071,0.449268 -1.065788,0.741449 -1.702215,0.817053 -0.636427,0.0756 -1.296655,-0.06583 -1.846261,-0.395512 -0.06924,-0.04153 -0.136754,-0.08594 -0.202313,-0.133067 -0.12427,0.25194 -0.369058,0.440996 -0.644227,0.497553 -0.275169,0.05656 -0.574679,-0.02062 -0.788243,-0.203127 -0.01833,-0.01566 -0.03605,-0.03204 -0.0531,-0.0491 -0.236788,-0.297285 -0.355018,-0.686432 -0.323622,-1.06519 0.0012,-0.0141 0.0025,-0.02818 0.002,-0.02112 l -0.222435,-1.890956 0.01111,-0.03708 0.03101,-0.04896 v 0 c -0.332358,-0.82297 -0.280913,-1.791974 0.136715,-2.575126 0.0284,-0.05325 0.05838,-0.105664 0.07703,-0.186693 -0.107204,-0.211936 -0.153361,-0.418969 -0.145429,-0.624151 z"
       sodipodi:nodetypes="cssscsscsscccsssssccsssccsssscsscsscsscccccccsccc" />
  </g>
  <g
     inkscape:groupmode="layer"
     id="layer3"
     inkscape:label="circle0"
     style="display:inline"
     sodipodi:insensitive="true">
    <ellipse
       style="fill:#020204;fill-opacity:1;fill-rule:evenodd;stroke-width:0.264583"
       id="path132"
       cx="67.104599"
       cy="63.070942"
       rx="3.0930002"
       ry="3.0926902" />
  </g>
  <g
     inkscape:groupmode="layer"
     id="layer7"
     inkscape:label="lights"
     style="display:inline"
     sodipodi:insensitive="true">
    <path
       style="fill:url(#linearGradient73031);fill-opacity:1;stroke:#000000;stroke-width:0.0264583;stroke-linecap:butt;stroke-linejoin:miter;stroke-miterlimit:4;stroke-dasharray:none;stroke-opacity:1"
       d="M 67.394858,59.98383 78.74908,0 81.945006,8.2906095e-4 Z"
       id="path21266"
       sodipodi:nodetypes="cccc" />
    <path
       style="fill:#e6fff7;fill-opacity:1;stroke:#000000;stroke-width:0.0264583;stroke-linecap:butt;stroke-linejoin:miter;stroke-miterlimit:4;stroke-dasharray:none;stroke-opacity:1"
       d="M 67.394859,59.983829 81.945006,8.2906131e-4 86.677675,0 67.670105,60.038599 67.394859,59.983829"
       id="path122440"
       sodipodi:nodetypes="ccccc" />
    <path
       style="fill:url(#linearGradient146571);fill-opacity:1;stroke:#000000;stroke-width:0.0264583;stroke-linecap:butt;stroke-linejoin:miter;stroke-miterlimit:4;stroke-dasharray:none;stroke-opacity:1"
       d="M 67.670105,60.038598 86.677674,0 89.731929,0.01472914 Z"
       id="path146506"
       sodipodi:nodetypes="cccc" />
    <path
       style="fill:url(#linearGradient155259);fill-opacity:1;stroke:#000000;stroke-width:0.0264583;stroke-linecap:butt;stroke-linejoin:miter;stroke-miterlimit:4;stroke-dasharray:none;stroke-opacity:1"
       d="M 66.078818,65.986821 39.906211,135.46667 h 4.309801 z"
       id="path148170"
       sodipodi:nodetypes="cccc" />
    <path
       style="fill:#e6fff7;fill-opacity:1;stroke:#000000;stroke-width:0.0264583;stroke-linecap:butt;stroke-linejoin:miter;stroke-miterlimit:4;stroke-dasharray:none;stroke-opacity:1"
       d="M 44.216012,135.46667 66.078819,65.98682 v 0 l 0.318701,0.101223 -17.247989,69.378627 z"
       id="path148338"
       sodipodi:nodetypes="cccccc" />
    <path
       style="fill:url(#linearGradient155137);fill-opacity:1;stroke:#000000;stroke-width:0.0264583;stroke-linecap:butt;stroke-linejoin:miter;stroke-miterlimit:4;stroke-dasharray:none;stroke-opacity:1"
       d="M 66.39752,66.088042 53.073217,135.46667 H 49.14953 Z"
       id="path154878"
       sodipodi:nodetypes="cccc" />
  </g>
  <g
     inkscape:groupmode="layer"
     id="layer8"
     inkscape:label="title"
     style="display:inline"
     sodipodi:insensitive="true">
    <text
       xml:space="preserve"
       style="font-size:8.46667px;line-height:1.25;font-family:'Clear Sans';-inkscape-font-specification:'Clear Sans';fill:url(#linearGradient236895);fill-opacity:1;stroke-width:0.264583"
       x="11.043722"
       y="13.803286"
       id="text3437"><tspan
         sodipodi:role="line"
         id="tspan3435"
         style="font-style:normal;font-variant:normal;font-weight:normal;font-stretch:normal;font-size:8.46667px;font-family:'Clear Sans Thin';-inkscape-font-specification:'Clear Sans Thin, Normal';font-variant-ligatures:normal;font-variant-caps:normal;font-variant-numeric:normal;font-variant-east-asian:normal;fill:url(#linearGradient236895);fill-opacity:1;stroke-width:0.264583"
         x="11.043722"
         y="13.803286">CLEAR</tspan></text>
    <g
       aria-label="F ACTION"
       transform="rotate(102.46731)"
       id="text84136"
       style="font-size:8.46667px;line-height:2.35;font-family:'Clear Sans Thin';-inkscape-font-specification:'Clear Sans Thin, Normal';letter-spacing:3.41577px;fill:url(#linearGradient300384);stroke-width:0.264583">
      <path
         d="m -5.9607116,-33.036012 h 2.133204 v -2.48047 h 0.3224611 v 2.48047 h 2.94762483 v 0.355534 H -6.2790385 v -3.241147 h 0.318327 z"
         id="path9915" />
      <path
         d="m 13.045801,-32.105836 -5.7216167,-2.013315 v -0.44235 l 5.7216167,-2.038119 v 0.413411 l -1.819011,0.620118 v 2.443262 l 1.819011,0.620118 z m -2.141472,-1.12448 v -2.22002 l -3.2535495,1.120345 z"
         id="path9917" />
      <path
         d="m 20.426189,-36.777387 q 0.252181,0.132291 0.463021,0.305924 0.21084,0.169499 0.363802,0.40101 0.152962,0.23151 0.239779,0.541569 0.08682,0.305924 0.08682,0.715202 0,0.607715 -0.186035,1.0542 -0.190169,0.44235 -0.56224,0.731738 -0.376204,0.289388 -0.93431,0.429948 -0.558106,0.136426 -1.298113,0.136426 -0.702799,0 -1.256771,-0.128158 -0.553972,-0.132291 -0.93431,-0.413411 -0.384473,-0.28112 -0.587045,-0.723471 -0.202571,-0.44235 -0.202571,-1.062467 0,-0.359669 0.07028,-0.653191 0.07028,-0.293522 0.214974,-0.529167 0.14056,-0.235644 0.351399,-0.417545 0.21084,-0.181902 0.487826,-0.322462 l 0.186035,0.33073 q -0.243912,0.124023 -0.425814,0.276986 -0.181901,0.148828 -0.30179,0.343131 -0.124024,0.19017 -0.181901,0.434082 -0.06201,0.239779 -0.06201,0.545704 0,0.525033 0.169499,0.892969 0.169499,0.363802 0.500228,0.595313 0.330729,0.23151 0.826823,0.338997 0.496094,0.103353 1.14515,0.103353 0.615984,0 1.107943,-0.09922 0.487826,-0.103353 0.830958,-0.334863 0.338997,-0.231511 0.520899,-0.607715 0.181901,-0.376205 0.181901,-0.930176 0,-0.376205 -0.09095,-0.644922 -0.09509,-0.272852 -0.239779,-0.463021 -0.144694,-0.194304 -0.322461,-0.318327 -0.177767,-0.128158 -0.347265,-0.214974 z"
         id="path9919" />
      <path
         d="m 24.883756,-34.375466 h 5.40329 v 0.355534 h -5.40329 v 2.033985 h -0.318327 v -4.41937 h 0.318327 z"
         id="path9921" />
      <path
         d="m 37.248939,-34.932321 v 1.914096 h -0.322461 v -0.781348 h -5.080829 v 0.781348 h -0.318327 v -1.914096 h 0.318327 v 0.777214 h 5.080829 v -0.777214 z"
         id="path9923"
         style="fill:url(#linearGradient13794)" />
      <path
         d="m 41.827345,-36.802192 q 0.686263,0 1.240235,0.115755 0.549837,0.115755 0.938444,0.376205 0.384473,0.256315 0.595313,0.673861 0.206706,0.417546 0.206706,1.025261 0,0.603581 -0.21084,1.021126 -0.21084,0.417546 -0.595313,0.677995 -0.388607,0.26045 -0.938444,0.376205 -0.553972,0.115755 -1.236101,0.115755 -0.677995,0 -1.227833,-0.115755 -0.553971,-0.115755 -0.942578,-0.376205 -0.388607,-0.260449 -0.599447,-0.677995 -0.21084,-0.417546 -0.21084,-1.021126 0,-0.607716 0.21084,-1.025261 0.206706,-0.417546 0.595313,-0.673861 0.384473,-0.26045 0.938444,-0.376205 0.549838,-0.115755 1.236101,-0.115755 z m 0,0.388607 q -0.63252,0 -1.12448,0.09508 -0.49196,0.09095 -0.826823,0.305924 -0.338998,0.21084 -0.51263,0.558106 -0.177767,0.343131 -0.177767,0.84336 0,0.504362 0.173632,0.847493 0.169499,0.343132 0.504363,0.558106 0.334863,0.21084 0.830957,0.305925 0.49196,0.09095 1.132748,0.09095 0.624251,0 1.116211,-0.09095 0.49196,-0.09508 0.830958,-0.305925 0.338997,-0.21084 0.516764,-0.553971 0.177767,-0.347266 0.177767,-0.851628 0,-0.500228 -0.173633,-0.84336 -0.177767,-0.347266 -0.516764,-0.558106 -0.338998,-0.214974 -0.826823,-0.305924 -0.49196,-0.09508 -1.12448,-0.09508 z"
         id="path9925" />
      <path
         d="m 53.742856,-36.128331 -5.308205,3.092319 h 5.308205 v 0.355534 h -5.721617 v -0.508496 l 5.130438,-2.988966 -5.130438,-10e-7 v -0.355534 l 5.721617,1e-6 z"
         id="path9927" />
    </g>
    <text
       xml:space="preserve"
       transform="scale(0.26458334)"
       id="text121212"
       style="font-size:40px;line-height:1.25;font-family:'Clear Sans';-inkscape-font-specification:'Clear Sans';white-space:pre;shape-inside:url(#rect121214)" />
  </g>
</svg>
